<svg width="50" height="50" fill="none" xmlns="http://www.w3.org/2000/svg"><g clip-path="url(#a)" fill="#F5F5F5"><path d="M38.019 27.938c-1.638 3.318-3.856 6.625-6.125 9.593A98.405 98.405 0 0 1 25 45.563a98.348 98.348 0 0 1-6.894-8.032c-2.269-2.968-4.487-6.275-6.125-9.593-1.656-3.354-2.606-6.494-2.606-9.188a15.625 15.625 0 1 1 31.25 0c0 2.694-.953 5.834-2.606 9.188ZM25 50s18.75-17.769 18.75-31.25a18.75 18.75 0 1 0-37.5 0C6.25 32.231 25 50 25 50Z"/><path d="M25 25a6.25 6.25 0 1 1 0-12.5A6.25 6.25 0 0 1 25 25Zm0 3.125a9.375 9.375 0 1 0 0-18.75 9.375 9.375 0 0 0 0 18.75Z"/></g><defs><clipPath id="a"><path fill="#fff" d="M0 0h50v50H0z"/></clipPath></defs></svg>