<svg width="26" height="26" fill="none" xmlns="http://www.w3.org/2000/svg"><path d="m6.31 3.935 6.69 6.69 6.656-6.656a1.596 1.596 0 0 1 1.144-.502A1.733 1.733 0 0 1 22.533 5.2a1.56 1.56 0 0 1-.468 1.144L15.323 13l6.742 6.743c.286.28.454.658.468 1.057a1.733 1.733 0 0 1-1.733 1.733 1.594 1.594 0 0 1-1.196-.468L13 15.375l-6.673 6.673a1.594 1.594 0 0 1-1.127.485A1.734 1.734 0 0 1 3.467 20.8a1.56 1.56 0 0 1 .468-1.144L10.677 13 3.935 6.257A1.56 1.56 0 0 1 3.467 5.2 1.733 1.733 0 0 1 5.2 3.467c.416.005.815.173 1.11.468Z" fill="#FFC099"/></svg>